<svg width="27" height="34" viewBox="0 0 27 34" fill="none" xmlns="http://www.w3.org/2000/svg">
<path d="M22.496 18.4987C22.4609 14.3112 25.9232 12.2759 26.0752 12.1823C24.1101 9.32827 21.0689 8.93058 20.0045 8.89549C17.4546 8.62646 14.9748 10.4278 13.6764 10.4278C12.3547 10.4278 10.3428 8.93058 8.19056 8.96567C5.41838 9.01246 2.80995 10.6149 1.39462 13.1181C-1.54132 18.2063 0.646012 25.6924 3.46498 29.8097C4.88032 31.8216 6.51789 34.0791 8.68184 33.9972C10.7873 33.9153 11.5827 32.6521 14.1209 32.6521C16.6475 32.6521 17.3844 33.9972 19.5834 33.9504C21.8526 33.9153 23.268 31.9268 24.6365 29.8916C26.2624 27.5873 26.9174 25.3064 26.9408 25.1894C26.8823 25.166 22.5428 23.505 22.496 18.4987Z" fill="white"/>
<path d="M18.3437 6.19408C19.4783 4.77875 20.2503 2.84874 20.0398 0.883652C18.4022 0.953834 16.3435 2.01826 15.1621 3.4102C14.1211 4.63838 13.1854 6.63857 13.4193 8.52178C15.2674 8.66214 17.1623 7.58602 18.3437 6.19408Z" fill="white"/>
</svg>
