<svg width="84" height="17" viewBox="0 0 84 17" fill="none" xmlns="http://www.w3.org/2000/svg">
<path d="M10.574 13.7329L9.42748 10.2412H4.47769L3.33112 13.7329H0.851562L5.62425 0.22467H8.33685L13.1095 13.7329H10.574ZM6.91996 2.61178L5.03698 8.3783H8.85886L6.98521 2.61178H6.91996Z" fill="white"/>
<path d="M19.7466 3.64152C21.0019 3.64152 21.9993 4.10022 22.7388 5.01762C23.4783 5.93502 23.8481 7.18631 23.8481 8.77148C23.8481 10.3504 23.4814 11.5986 22.7481 12.516C22.0148 13.4334 21.0267 13.8921 19.7838 13.8921C19.0754 13.8921 18.4508 13.7329 17.9102 13.4146C17.3695 13.0901 16.9625 12.647 16.6891 12.0854H16.6424V17H14.3214V3.81002H16.5865V5.52313H16.6331C16.919 4.93649 17.3322 4.47779 17.8729 4.14703C18.4136 3.81002 19.0381 3.64152 19.7466 3.64152ZM19.0381 11.9824C19.7901 11.9824 20.3835 11.6953 20.8185 11.1211C21.2536 10.5407 21.4711 9.75753 21.4711 8.77148C21.4711 7.79167 21.2504 7.01156 20.8092 6.43117C20.3742 5.85077 19.7838 5.56057 19.0381 5.56057C18.3172 5.56057 17.7362 5.85389 17.295 6.44053C16.8537 7.02717 16.63 7.80415 16.6238 8.77148C16.63 9.74505 16.8537 10.5251 17.295 11.1118C17.7362 11.6922 18.3172 11.9824 19.0381 11.9824Z" fill="white"/>
<path d="M30.7647 3.64152C32.0201 3.64152 33.0175 4.10022 33.757 5.01762C34.4965 5.93502 34.8663 7.18631 34.8663 8.77148C34.8663 10.3504 34.4996 11.5986 33.7663 12.516C33.033 13.4334 32.0449 13.8921 30.802 13.8921C30.0936 13.8921 29.469 13.7329 28.9284 13.4146C28.3877 13.0901 27.9807 12.647 27.7072 12.0854H27.6606V17H25.3395V3.81002H27.6047V5.52313H27.6513C27.9372 4.93649 28.3504 4.47779 28.8911 4.14703C29.4318 3.81002 30.0563 3.64152 30.7647 3.64152ZM30.0563 11.9824C30.8082 11.9824 31.4017 11.6953 31.8367 11.1211C32.2717 10.5407 32.4893 9.75753 32.4893 8.77148C32.4893 7.79167 32.2686 7.01156 31.8274 6.43117C31.3924 5.85077 30.802 5.56057 30.0563 5.56057C29.3354 5.56057 28.7544 5.85389 28.3132 6.44053C27.8719 7.02717 27.6482 7.80415 27.642 8.77148C27.6482 9.74505 27.8719 10.5251 28.3132 11.1118C28.7544 11.6922 29.3354 11.9824 30.0563 11.9824Z" fill="white"/>
<path d="M39.8627 9.93227H42.1931C42.2677 10.5501 42.5846 11.0494 43.1439 11.4301C43.7032 11.8045 44.3961 11.9917 45.2226 11.9917C46.0305 11.9917 46.6892 11.8108 47.1988 11.4488C47.7146 11.0868 47.9725 10.625 47.9725 10.0633C47.9725 9.57654 47.7861 9.18337 47.4132 8.88381C47.0404 8.57801 46.4313 8.32526 45.5862 8.12555L43.843 7.71366C42.6064 7.42658 41.6866 6.98036 41.0838 6.375C40.4872 5.76964 40.1889 4.9833 40.1889 4.01597C40.1889 2.82397 40.655 1.85664 41.5872 1.11399C42.5194 0.371329 43.7218 0 45.1947 0C46.6737 0 47.8638 0.368209 48.7649 1.10463C49.6722 1.8348 50.1414 2.79589 50.1724 3.98789H47.8793C47.8234 3.35756 47.553 2.86454 47.0683 2.50881C46.5836 2.14684 45.9528 1.96586 45.176 1.96586C44.4179 1.96586 43.8026 2.13748 43.3303 2.48073C42.8643 2.82397 42.6312 3.27643 42.6312 3.83811C42.6312 4.28745 42.8114 4.65253 43.1719 4.93337C43.5385 5.21421 44.1351 5.45448 44.9616 5.65419L46.509 6.00991C47.87 6.32195 48.8581 6.77753 49.4733 7.37665C50.0885 7.97577 50.3961 8.77772 50.3961 9.78249C50.3961 11.0619 49.9176 12.0791 48.9606 12.8343C48.0098 13.5832 46.7203 13.9576 45.0921 13.9576C43.5385 13.9576 42.2894 13.5988 41.3448 12.8811C40.4064 12.1571 39.9124 11.1742 39.8627 9.93227Z" fill="white"/>
<path d="M52.624 1.48844H54.9451V3.81002H56.8094V5.60738H54.9451V10.7654C54.9451 11.1711 55.0414 11.4706 55.2341 11.6641C55.4267 11.8576 55.7281 11.9543 56.1383 11.9543C56.4117 11.9543 56.6323 11.9387 56.8001 11.9075V13.6861C56.5205 13.7485 56.1196 13.7797 55.5976 13.7797C54.5287 13.7797 53.7644 13.5738 53.3045 13.1619C52.8508 12.75 52.624 12.0604 52.624 11.0931V5.60738H51.2071V3.81002H52.624V1.48844Z" fill="white"/>
<path d="M66.0658 12.5534C65.202 13.4708 64.0399 13.9295 62.5795 13.9295C61.1192 13.9295 59.9571 13.4708 59.0932 12.5534C58.2294 11.6298 57.7975 10.3691 57.7975 8.77148C57.7975 7.18007 58.2325 5.92254 59.1026 4.9989C59.9726 4.06902 61.1316 3.60408 62.5795 3.60408C64.0337 3.60408 65.1927 4.06902 66.0565 4.9989C66.9265 5.92254 67.3616 7.18007 67.3616 8.77148C67.3616 10.3691 66.9297 11.6298 66.0658 12.5534ZM60.8084 11.2148C61.2434 11.7952 61.8338 12.0854 62.5795 12.0854C63.3253 12.0854 63.9157 11.7952 64.3507 11.2148C64.7857 10.6344 65.0032 9.81993 65.0032 8.77148C65.0032 7.72926 64.7857 6.91795 64.3507 6.33756C63.9157 5.75092 63.3253 5.4576 62.5795 5.4576C61.84 5.4576 61.2497 5.75092 60.8084 6.33756C60.3734 6.91795 60.1559 7.72926 60.1559 8.77148C60.1559 9.81993 60.3734 10.6344 60.8084 11.2148Z" fill="white"/>
<path d="M68.853 13.7329V3.81002H71.0809V5.54185H71.1275C71.2953 4.93649 71.5843 4.46843 71.9944 4.13767C72.4108 3.8069 72.911 3.64152 73.4952 3.64152C73.7003 3.64152 73.9426 3.67272 74.2223 3.73513V5.84141C73.9924 5.75404 73.6785 5.71035 73.2808 5.71035C72.6221 5.71035 72.1063 5.91006 71.7334 6.30947C71.3605 6.70888 71.1741 7.25808 71.1741 7.95705V13.7329H68.853Z" fill="white"/>
<path d="M79.3026 5.41079C78.6563 5.41079 78.1156 5.63546 77.6806 6.0848C77.2518 6.5279 77.0126 7.09894 76.9629 7.79791H81.5771C81.5522 7.0927 81.3316 6.51854 80.9152 6.07544C80.4989 5.63234 79.9613 5.41079 79.3026 5.41079ZM81.5864 10.7654H83.7583C83.6092 11.7078 83.1338 12.4723 82.3321 13.0589C81.5305 13.6393 80.5486 13.9295 79.3865 13.9295C77.9074 13.9295 76.7454 13.4739 75.9002 12.5628C75.055 11.6454 74.6324 10.3941 74.6324 8.80892C74.6324 7.23623 75.0519 5.97559 75.8909 5.02698C76.736 4.07838 77.8702 3.60408 79.2933 3.60408C80.6915 3.60408 81.8008 4.05653 82.6211 4.96145C83.4414 5.86013 83.8516 7.06461 83.8516 8.57489V9.33315H76.9442V9.47357C76.9442 10.2724 77.1679 10.9152 77.6154 11.402C78.069 11.8888 78.6749 12.1322 79.4331 12.1322C79.9675 12.1322 80.4274 12.0105 80.8127 11.7671C81.2042 11.5174 81.4621 11.1836 81.5864 10.7654Z" fill="white"/>
</svg>
