<svg width="168" height="56" viewBox="0 0 168 56" fill="none" xmlns="http://www.w3.org/2000/svg">
<rect opacity="0.2" width="168" height="56" rx="8" fill="white"/>
<path d="M41.559 29.3096C41.5283 25.6455 44.5578 23.8647 44.6908 23.7828C42.9714 21.2855 40.3103 20.9375 39.3789 20.9068C37.1477 20.6714 34.978 22.2475 33.8419 22.2475C32.6854 22.2475 30.925 20.9375 29.0417 20.9682C26.6161 21.0091 24.3337 22.4113 23.0953 24.6016C20.5263 29.0537 22.4403 35.604 24.9069 39.2067C26.1453 40.9671 27.5782 42.9424 29.4716 42.8708C31.3139 42.7991 32.0098 41.6938 34.2308 41.6938C36.4415 41.6938 37.0863 42.8708 39.0105 42.8298C40.9961 42.7991 42.2345 41.0592 43.4319 39.2784C44.8546 37.2621 45.4277 35.2663 45.4482 35.1639C45.397 35.1435 41.5999 33.6901 41.559 29.3096Z" fill="white"/>
<path d="M37.9255 18.5451C38.9183 17.3066 39.5938 15.6179 39.4096 13.8984C37.9767 13.9598 36.1754 14.8912 35.1417 16.1092C34.2308 17.1838 33.412 18.934 33.6167 20.5818C35.2338 20.7046 36.8918 19.763 37.9255 18.5451Z" fill="white"/>
<path d="M67.0023 40.8913L65.999 37.836H61.668L60.6647 40.8913H58.4951L62.6712 29.0716H65.0447L69.2208 40.8913H67.0023ZM63.805 31.1603L62.1574 36.206H65.5015L63.8621 31.1603H63.805Z" fill="white"/>
<path d="M75.0282 32.0613C76.1266 32.0613 76.9994 32.4627 77.6465 33.2654C78.2935 34.0681 78.6171 35.163 78.6171 36.55C78.6171 37.9316 78.2963 39.0237 77.6546 39.8265C77.013 40.6292 76.1484 41.0306 75.0609 41.0306C74.441 41.0306 73.8945 40.8913 73.4214 40.6128C72.9483 40.3289 72.5922 39.9411 72.3529 39.4497H72.3121V43.75H70.2812V32.2088H72.2632V33.7077H72.304C72.5541 33.1944 72.9157 32.7931 73.3888 32.5036C73.8619 32.2088 74.4083 32.0613 75.0282 32.0613ZM74.4083 39.3596C75.0663 39.3596 75.5856 39.1084 75.9662 38.606C76.3469 38.0982 76.5372 37.4128 76.5372 36.55C76.5372 35.6927 76.3441 35.0101 75.9581 34.5023C75.5774 33.9944 75.0609 33.7405 74.4083 33.7405C73.7776 33.7405 73.2692 33.9972 72.8831 34.5105C72.497 35.0238 72.3013 35.7036 72.2958 36.55C72.3013 37.4019 72.497 38.0845 72.8831 38.5978C73.2692 39.1057 73.7776 39.3596 74.4083 39.3596Z" fill="white"/>
<path d="M84.6692 32.0613C85.7676 32.0613 86.6403 32.4627 87.2874 33.2654C87.9345 34.0681 88.258 35.163 88.258 36.55C88.258 37.9316 87.9372 39.0237 87.2955 39.8265C86.6539 40.6292 85.7893 41.0306 84.7018 41.0306C84.0819 41.0306 83.5354 40.8913 83.0623 40.6128C82.5893 40.3289 82.2331 39.9411 81.9938 39.4497H81.9531V43.75H79.9221V32.2088H81.9041V33.7077H81.9449C82.195 33.1944 82.5566 32.7931 83.0297 32.5036C83.5028 32.2088 84.0493 32.0613 84.6692 32.0613ZM84.0493 39.3596C84.7072 39.3596 85.2265 39.1084 85.6071 38.606C85.9878 38.0982 86.1781 37.4128 86.1781 36.55C86.1781 35.6927 85.9851 35.0101 85.599 34.5023C85.2184 33.9944 84.7018 33.7405 84.0493 33.7405C83.4185 33.7405 82.9101 33.9972 82.524 34.5105C82.1379 35.0238 81.9422 35.7036 81.9367 36.55C81.9422 37.4019 82.1379 38.0845 82.524 38.5978C82.9101 39.1057 83.4185 39.3596 84.0493 39.3596Z" fill="white"/>
<path d="M92.6298 37.5657H94.669C94.7342 38.1063 95.0115 38.5432 95.5009 38.8763C95.9903 39.204 96.5966 39.3678 97.3198 39.3678C98.0267 39.3678 98.6031 39.2094 99.049 38.8927C99.5003 38.576 99.726 38.1719 99.726 37.6804C99.726 37.2545 99.5628 36.9104 99.2366 36.6483C98.9103 36.3808 98.3774 36.1596 97.6379 35.9849L96.1126 35.6244C95.0306 35.3733 94.2258 34.9828 93.6983 34.4531C93.1763 33.9234 92.9153 33.2354 92.9153 32.389C92.9153 31.346 93.3231 30.4996 94.1388 29.8497C94.9544 29.1999 96.0066 28.875 97.2953 28.875C98.5895 28.875 99.6308 29.1972 100.419 29.8415C101.213 30.4805 101.624 31.3214 101.651 32.3644H99.6444C99.5954 31.8129 99.3589 31.3815 98.9348 31.0702C98.5106 30.7535 97.9587 30.5951 97.279 30.5951C96.6156 30.5951 96.0773 30.7453 95.664 31.0456C95.2562 31.346 95.0523 31.7419 95.0523 32.2333C95.0523 32.6265 95.21 32.946 95.5254 33.1917C95.8462 33.4374 96.3682 33.6477 97.0914 33.8224L98.4454 34.1337C99.6362 34.4067 100.501 34.8053 101.039 35.3296C101.577 35.8538 101.847 36.5555 101.847 37.4347C101.847 38.5541 101.428 39.4442 100.591 40.105C99.7586 40.7603 98.6303 41.0879 97.2056 41.0879C95.8462 41.0879 94.7532 40.7739 93.9267 40.1459C93.1056 39.5125 92.6733 38.6524 92.6298 37.5657Z" fill="white"/>
<path d="M103.796 30.1774H105.827V32.2088H107.458V33.7815H105.827V38.2947C105.827 38.6497 105.911 38.9118 106.08 39.0811C106.248 39.2504 106.512 39.335 106.871 39.335C107.11 39.335 107.303 39.3214 107.45 39.2941V40.8504C107.205 40.905 106.855 40.9323 106.398 40.9323C105.463 40.9323 104.794 40.7521 104.391 40.3917C103.994 40.0313 103.796 39.4278 103.796 38.5814V33.7815H102.556V32.2088H103.796V30.1774Z" fill="white"/>
<path d="M115.558 39.8592C114.802 40.662 113.785 41.0633 112.507 41.0633C111.229 41.0633 110.212 40.662 109.457 39.8592C108.701 39.0511 108.323 37.948 108.323 36.55C108.323 35.1576 108.703 34.0572 109.465 33.249C110.226 32.4354 111.24 32.0286 112.507 32.0286C113.78 32.0286 114.794 32.4354 115.549 33.249C116.311 34.0572 116.691 35.1576 116.691 36.55C116.691 37.948 116.313 39.0511 115.558 39.8592ZM110.957 38.6879C111.338 39.1958 111.855 39.4497 112.507 39.4497C113.16 39.4497 113.676 39.1958 114.057 38.6879C114.437 38.1801 114.628 37.4674 114.628 36.55C114.628 35.6381 114.437 34.9282 114.057 34.4204C113.676 33.9071 113.16 33.6504 112.507 33.6504C111.86 33.6504 111.343 33.9071 110.957 34.4204C110.577 34.9282 110.386 35.6381 110.386 36.55C110.386 37.4674 110.577 38.1801 110.957 38.6879Z" fill="white"/>
<path d="M117.996 40.8913V32.2088H119.946V33.7241H119.987C120.133 33.1944 120.386 32.7849 120.745 32.4955C121.109 32.206 121.547 32.0613 122.058 32.0613C122.238 32.0613 122.45 32.0886 122.694 32.1432V33.9862C122.493 33.9098 122.219 33.8716 121.871 33.8716C121.294 33.8716 120.843 34.0463 120.517 34.3958C120.19 34.7453 120.027 35.2258 120.027 35.8374V40.8913H117.996Z" fill="white"/>
<path d="M127.14 33.6094C126.574 33.6094 126.101 33.806 125.721 34.1992C125.345 34.5869 125.136 35.0866 125.092 35.6982H129.13C129.108 35.0811 128.915 34.5787 128.551 34.191C128.187 33.8033 127.716 33.6094 127.14 33.6094ZM129.138 38.2947H131.039C130.908 39.1193 130.492 39.7882 129.791 40.3016C129.089 40.8094 128.23 41.0633 127.213 41.0633C125.919 41.0633 124.902 40.6647 124.163 39.8674C123.423 39.0647 123.053 37.9698 123.053 36.5828C123.053 35.2067 123.42 34.1036 124.155 33.2736C124.894 32.4436 125.886 32.0286 127.132 32.0286C128.355 32.0286 129.326 32.4245 130.043 33.2163C130.761 34.0026 131.12 35.0565 131.12 36.378V37.0415H125.076V37.1644C125.076 37.8633 125.272 38.4258 125.663 38.8517C126.06 39.2777 126.591 39.4906 127.254 39.4906C127.722 39.4906 128.124 39.3842 128.461 39.1712C128.804 38.9528 129.029 38.6606 129.138 38.2947Z" fill="white"/>
<path d="M59.0117 14.3438V21.3214H61.7361C62.8337 21.3214 63.4217 21.1253 63.9999 20.5472C64.7545 19.7926 64.9799 18.7537 64.9799 17.715C64.9799 16.5978 64.6173 15.657 63.9509 15.0591C63.2845 14.4613 62.5299 14.3438 61.6675 14.3438H59.0117ZM60.2269 15.3826H61.5891C63.1179 15.3826 63.7549 16.343 63.7549 17.7738C63.7549 19.2046 63.3041 20.2924 61.6675 20.2924H60.2269V15.3826Z" fill="white"/>
<path d="M68.2794 16.1175C66.7114 16.1175 65.702 17.1662 65.702 18.793C65.702 20.4394 66.7016 21.4781 68.2794 21.4781C69.8278 21.4781 70.8078 20.4394 70.8078 18.793C70.8078 17.1564 69.8278 16.1175 68.2794 16.1175ZM68.2598 16.9996C69.1418 16.9996 69.6808 17.6758 69.6808 18.7832C69.6808 19.92 69.1516 20.6059 68.2696 20.6059C67.368 20.6059 66.829 19.9298 66.829 18.793C66.829 17.6855 67.3778 16.9996 68.2598 16.9996Z" fill="white"/>
<path d="M71.276 16.2645L72.844 21.3214H74.02L74.9608 17.568L75.9114 21.3214H77.058L78.6554 16.2645H77.5186L76.47 20.0571L75.539 16.2645H74.412L73.4614 20.0571L72.4618 16.2645H71.276Z" fill="white"/>
<path d="M80.4421 16.2645H79.3837V21.3214H80.5009V18.597C80.5009 17.4308 81.0595 17.0584 81.7357 17.0584C82.6275 17.0584 82.7157 17.6855 82.7157 18.3814V21.3214H83.8329V17.9502C83.8329 16.8036 83.2841 16.1273 82.1179 16.1273C81.3633 16.1273 80.8635 16.4017 80.4421 17.0094V16.2645Z" fill="white"/>
<path d="M86.1478 14.3438H85.0404V21.3214H86.1478V14.3438Z" fill="white"/>
<path d="M89.7073 16.1175C88.1393 16.1175 87.1299 17.1662 87.1299 18.793C87.1299 20.4394 88.1295 21.4781 89.7073 21.4781C91.2557 21.4781 92.2357 20.4394 92.2357 18.793C92.2357 17.1564 91.2557 16.1175 89.7073 16.1175ZM89.6877 16.9996C90.5697 16.9996 91.1087 17.6758 91.1087 18.7832C91.1087 19.92 90.5795 20.6059 89.6975 20.6059C88.7959 20.6059 88.2569 19.9298 88.2569 18.793C88.2569 17.6855 88.8057 16.9996 89.6877 16.9996Z" fill="white"/>
<path d="M93.1253 17.8228H94.1837C94.2719 17.1662 94.5855 16.9211 95.3107 16.9211C96.0163 16.9211 96.3495 17.1662 96.3495 17.6856C96.3495 17.8718 96.3299 17.9894 96.2809 18.0482C96.1731 18.1952 95.9477 18.2442 95.1735 18.3422C94.1641 18.4696 92.9097 18.5969 92.9097 19.9395C92.9097 20.8706 93.5663 21.4488 94.6149 21.4488C95.2813 21.4488 95.9281 21.2821 96.3887 20.8411C96.4671 21.2821 96.7807 21.4488 97.2119 21.4488C97.4275 21.4488 97.5843 21.4292 97.9371 21.341V20.557C97.7999 20.5766 97.7607 20.5766 97.6823 20.5766C97.4765 20.5766 97.4177 20.4981 97.4177 20.2041V17.6366C97.4177 16.5487 96.5357 16.1078 95.3401 16.1078C94.1053 16.1078 93.2527 16.5782 93.1253 17.8228ZM96.3397 18.7832V19.3809C96.3397 19.6848 96.3495 20.018 96.1143 20.2532C95.8595 20.508 95.4283 20.655 94.9677 20.655C94.3895 20.655 94.0563 20.3806 94.0563 19.9004C94.0563 19.234 94.6443 19.136 95.1637 19.0575C95.5655 18.9988 95.9771 18.989 96.3397 18.7832Z" fill="white"/>
<path d="M103.412 14.3438H102.314V16.9211C101.962 16.4018 101.423 16.1273 100.707 16.1273C99.3058 16.1273 98.414 17.1564 98.414 18.7832C98.414 20.4198 99.3156 21.4585 100.746 21.4585C101.501 21.4585 102.05 21.1744 102.363 20.6256V21.3214H103.412V14.3438ZM100.913 17.029C101.815 17.029 102.344 17.6758 102.344 18.7832C102.344 19.9004 101.824 20.557 100.952 20.557C100.08 20.557 99.541 19.871 99.541 18.7636C99.541 17.6855 100.07 17.029 100.913 17.029Z" fill="white"/>
<path d="M108.407 16.2645H107.348V21.3214H108.465V18.597C108.465 17.4308 109.024 17.0584 109.7 17.0584C110.592 17.0584 110.68 17.6855 110.68 18.3814V21.3214H111.797V17.9502C111.797 16.8036 111.249 16.1273 110.082 16.1273C109.328 16.1273 108.828 16.4017 108.407 17.0094V16.2645Z" fill="white"/>
<path d="M115.308 16.1175C113.74 16.1175 112.73 17.1662 112.73 18.793C112.73 20.4394 113.73 21.4781 115.308 21.4781C116.856 21.4781 117.836 20.4394 117.836 18.793C117.836 17.1564 116.856 16.1175 115.308 16.1175ZM115.288 16.9996C116.17 16.9996 116.709 17.6758 116.709 18.7832C116.709 19.92 116.18 20.6059 115.298 20.6059C114.396 20.6059 113.857 19.9298 113.857 18.793C113.857 17.6855 114.406 16.9996 115.288 16.9996Z" fill="white"/>
<path d="M118.304 16.2645L119.872 21.3214H121.048L121.989 17.568L122.94 21.3214H124.086L125.684 16.2645H124.547L123.498 20.0571L122.567 16.2645H121.44L120.49 20.0571L119.49 16.2645H118.304Z" fill="white"/>
</svg>
