<svg width="130" height="71" viewBox="0 0 130 71" fill="none" xmlns="http://www.w3.org/2000/svg">
<g clip-path="url(#clip0_2_504)">
<path d="M47.4615 70.9965C50.8377 70.9965 53.5746 68.2679 53.5746 64.9021C53.5746 61.5362 50.8377 58.8076 47.4615 58.8076C44.0853 58.8076 41.3484 61.5362 41.3484 64.9021C41.3484 68.2679 44.0853 70.9965 47.4615 70.9965Z" fill="#EACA5C"/>
<path d="M99.5692 70.9965C102.945 70.9965 105.682 68.2679 105.682 64.9021C105.682 61.5362 102.945 58.8076 99.5692 58.8076C96.193 58.8076 93.4561 61.5362 93.4561 64.9021C93.4561 68.2679 96.193 70.9965 99.5692 70.9965Z" fill="#EACA5C"/>
<path d="M24.0309 37.4219C22.268 34.1349 17.3762 2.72019 17.4132 2.45521C16.9475 1.6925 16.2775 1.07451 15.4787 0.670824C14.6673 0.236453 13.7619 0.00617531 12.841 0C12.651 0.000936215 12.4645 0.0506052 12.2993 0.144227C12.1244 0.234788 11.9393 0.34212 11.7543 0.45616L11.5827 0.791572C11.5827 0.791572 10.2369 6.39966 9.63471 9.27749C9.03249 12.1553 8.37306 15.0265 7.68336 17.9043C6.99367 20.7821 6.23668 23.6231 5.4225 26.4472C4.60831 29.2714 3.65283 32.0218 2.58295 34.7285C2.46856 34.9935 2.27679 35.3994 2.011 35.9293C1.74522 36.4593 1.45251 37.0161 1.16654 37.5661C0.880568 38.1162 0.608053 38.6294 0.365817 39.1057C0.123581 39.582 -0.196036 40.2461 0.170682 40.7827C0.581138 41.3764 2.94967 42.3357 3.37358 42.4598C3.74679 42.5669 4.13254 42.6244 4.52084 42.6308C4.63523 42.6308 6.1021 42.3726 6.6404 41.6246C7.22427 40.7952 7.7321 39.9151 8.15774 38.995C8.62683 38.0135 9.03799 37.0056 9.38911 35.9763C9.72555 34.97 9.97788 34.2523 10.136 33.833C10.9799 33.6784 11.831 33.5664 12.6862 33.4976C13.5811 33.4171 14.4323 33.3835 15.2364 33.3835H16.5822C17.0334 33.3792 17.4839 33.4174 17.9279 33.4976C18.3081 34.43 24.6231 38.5187 24.0309 37.4219ZM15.7243 30.8244C15.2232 30.7275 14.7139 30.6792 14.2036 30.6801C13.6686 30.6801 13.1438 30.7002 12.629 30.7371C12.1143 30.774 11.5894 30.8311 11.0511 30.9082C11.8115 28.5424 12.4843 26.1711 13.0698 23.7941C13.6652 21.416 14.2237 19.0246 14.7519 16.6264C15.0144 19.0257 15.3003 21.463 15.6099 23.9383C15.9048 26.366 16.4424 28.7582 17.2147 31.0793C16.7033 31.0021 16.1953 30.9149 15.7243 30.8244Z" fill="#159671"/>
<path d="M43.9086 17.0522C43.9098 17.0667 43.914 17.0807 43.9209 17.0934C43.9279 17.1061 43.9374 17.1172 43.9489 17.126C43.9355 17.0757 43.922 17.0522 43.9086 17.0522ZM41.8159 25.5751C41.8546 25.5782 41.8929 25.585 41.9303 25.5952C42.0049 25.6153 42.0818 25.6255 42.1591 25.6254C42.0493 25.5858 41.9325 25.5687 41.8159 25.5751Z" fill="#159671"/>
<path d="M48.7836 21.9964C48.8051 22.878 48.6765 23.757 48.4034 24.5958C48.1511 25.3035 47.5085 25.8603 46.4689 26.2729H46.0584L45.5403 26.2158H45.2039L44.9179 26.1588L44.8607 26.1018C44.2109 25.9518 43.5808 25.7267 42.9834 25.431C42.3959 25.1561 41.8757 24.7566 41.4593 24.2604L41.2271 23.5896C41.4878 22.8806 41.8039 22.1931 42.1725 21.5335C42.5204 20.8441 42.6695 20.0719 42.6032 19.303C41.4742 20.3127 40.4823 21.4651 39.6526 22.7309C38.8313 23.9861 38.1306 25.3157 37.56 26.7022C36.9799 28.11 36.4823 29.5503 36.0695 31.0156C35.6501 32.5026 35.2498 33.956 34.8685 35.3759C34.8185 35.6107 34.8083 35.8522 34.8382 36.0904C34.8382 36.4526 34.8752 36.8316 34.8954 37.2308C34.9156 37.6299 34.9324 38.0324 34.9526 38.4315C34.9728 38.8307 34.9828 39.1024 34.9828 39.26V40.6889L34.7541 41.202C34.4417 41.3168 34.1113 41.3747 33.7784 41.3731C32.8419 41.445 31.9064 41.2218 31.1041 40.7348C30.3017 40.2479 29.6732 39.522 29.3071 38.6596C28.9029 37.7737 28.6417 36.8296 28.5333 35.8623C28.3998 34.8099 28.3335 33.7501 28.3348 32.6893C28.3348 31.626 28.3718 30.5829 28.4492 29.5767C28.5266 28.5704 28.5636 27.6849 28.5636 26.9202C28.5641 25.3737 28.4776 23.8284 28.3045 22.2915C28.1338 20.7736 28.0484 19.2473 28.0488 17.7199V18.0553C28.0488 17.7467 28.0488 17.4482 28.0186 17.1396C27.9883 16.831 27.9681 16.5325 27.9345 16.2273C27.8714 16.1255 27.8323 16.0109 27.8201 15.8919C27.8884 15.6479 28.0277 15.4297 28.2204 15.2646H28.5064C28.8523 15.2705 29.1942 15.3387 29.5157 15.4659C29.8757 15.6001 30.2121 15.7443 30.525 15.8919L30.8615 16.0629C31.5224 16.3475 32.1101 16.7775 32.5807 17.3207C33.0291 17.8595 33.3881 18.4665 33.6438 19.1185C33.9101 19.7854 34.1205 20.4731 34.273 21.1746C34.4244 21.8823 34.5387 22.5733 34.6094 23.2609C34.9287 22.5895 35.2917 21.9396 35.6961 21.3155C36.1718 20.5811 36.6909 19.8755 37.2504 19.2024C37.8116 18.534 38.4175 17.9043 39.0638 17.3174C39.612 16.7986 40.252 16.3857 40.9513 16.0998L41.0085 16.0428V16.0998L41.0657 16.0428C41.4021 15.9657 41.7385 15.8785 42.075 15.7879C42.4218 15.6896 42.7809 15.6411 43.1415 15.6437L42.906 15.7007C43.735 15.5347 44.5957 15.6455 45.3553 16.016C46.0652 16.379 46.6918 16.885 47.1956 17.5018C47.7187 18.1363 48.1171 18.8634 48.3697 19.6451C48.6373 20.4006 48.7772 21.1952 48.7836 21.9964Z" fill="#159671"/>
<path d="M58.8162 16.2542H58.8767C58.8905 16.2369 58.9078 16.2229 58.9276 16.213C58.9473 16.2032 58.969 16.1978 58.9911 16.1972C58.9596 16.1937 58.9276 16.1969 58.8974 16.2068C58.8672 16.2166 58.8395 16.2328 58.8162 16.2542Z" fill="#159671"/>
<path d="M73.5927 41.6214C73.4439 41.4565 73.2819 41.304 73.1082 41.1653C72.9513 41.0454 72.7885 40.9335 72.6204 40.8299C72.5023 40.7743 72.4029 40.6858 72.3344 40.5749C71.9536 39.9185 71.6821 39.2049 71.5303 38.4618C71.3386 37.6233 71.1939 36.8821 71.0728 36.2314C70.8483 34.7613 70.7079 33.2798 70.6522 31.7939C70.595 30.3315 70.5513 28.8523 70.5379 27.3664C70.5244 25.8805 70.4807 24.3947 70.4235 22.9088C70.3663 21.4229 70.2384 19.9605 70.05 18.5115V18.6256L69.9928 18.3975V18.4478L69.7069 17.6462L69.8784 17.8743C69.5709 17.3396 69.1262 16.8962 68.5899 16.5896C68.2745 16.354 67.9083 16.1952 67.5204 16.1259C67.1325 16.0566 66.7337 16.0787 66.3559 16.1905C66.1036 16.2475 66.0195 16.3112 66.0969 16.3917L65.6393 16.9049L65.4105 17.4751H64.8352C64.3909 17.265 63.9183 17.1204 63.4323 17.0458C62.95 16.9607 62.4618 16.9136 61.9721 16.9049H61.5684L61.454 16.9619C59.6695 16.9575 57.9347 17.5478 56.5252 18.639C55.0054 19.7912 53.714 21.2152 52.7167 22.8384C51.6631 24.5201 50.8437 26.3367 50.2809 28.2385C49.7429 29.9311 49.4528 31.6923 49.4196 33.4676C49.4078 34.5506 49.6509 35.6213 50.1295 36.5936C50.589 37.5462 51.2314 38.3997 52.0203 39.1058C53.6541 40.5559 55.7642 41.359 57.9517 41.3632H58.2881C58.4765 41.3632 58.5775 41.343 58.5775 41.3061H58.3453C58.6818 41.229 58.9206 41.172 59.0182 41.1351C59.2384 41.044 59.4491 40.9317 59.6473 40.7997L59.5901 40.8567C60.0847 40.7057 60.5793 40.2362 61.0806 39.458C61.6171 38.6054 62.096 37.7179 62.5138 36.8016C62.9566 35.8411 63.3486 34.8581 63.688 33.8566C64.0244 32.8873 64.2464 32.136 64.4046 31.6027C64.556 32.894 64.741 34.2021 65.0068 35.5136C65.2316 36.7636 65.6613 37.9681 66.2785 39.079C66.858 40.135 67.6945 41.0289 68.711 41.6784C69.7439 42.3493 71.0963 42.6847 72.7819 42.6847C73.0087 42.6805 73.2344 42.6513 73.4548 42.5975C73.5588 42.5857 73.6546 42.5354 73.7232 42.4565C73.7918 42.3776 73.8281 42.2759 73.8249 42.1715C73.8207 41.9653 73.7376 41.7685 73.5927 41.6214ZM62.9142 22.3386C62.6618 23.2878 62.3691 24.3947 62.026 25.6525C61.6828 26.9103 61.2925 28.2318 60.8787 29.6237C60.4852 30.9317 60.0259 32.219 59.5027 33.481C59.071 34.5321 58.5333 35.5368 57.8979 36.4796C57.3259 37.3013 56.7304 37.7877 56.1215 37.9352C55.8417 37.1079 55.7063 36.2389 55.7211 35.366C55.7595 34.0362 55.986 32.7184 56.394 31.4517C56.841 29.9167 57.4254 28.4249 58.1401 26.9941C58.8363 25.5798 59.6618 24.2324 60.6062 22.9692C61.3591 21.8979 62.3359 21.0019 63.4693 20.3429C63.3347 20.7186 63.1497 21.3894 62.9142 22.3386Z" fill="#159671"/>
<path d="M93.308 16.9685L91.8176 20.6816C90.7432 23.4588 89.7978 26.2684 88.9814 29.1105C88.165 31.9525 87.2577 34.78 86.2596 37.593C86.0533 38.2286 85.8037 38.8495 85.5127 39.4512C85.2175 40.0583 84.8732 40.6405 84.4832 41.192L83.7935 41.3631V41.4201C83.7208 41.5318 83.6094 41.6129 83.4806 41.6482C83.3592 41.6834 83.2336 41.7026 83.1072 41.7052C82.6778 41.69 82.2529 41.6132 81.8455 41.4771C81.3513 41.3336 80.8706 41.1472 80.4089 40.9203C79.9543 40.6955 79.5227 40.427 79.1204 40.1187C78.7773 39.8817 78.493 39.5696 78.2894 39.2064C77.5688 37.8135 77.0295 36.3347 76.6846 34.8058C76.227 32.9778 75.8401 31.0726 75.5373 29.1037C75.2345 27.1349 74.9822 25.156 74.7971 23.2542C74.6121 21.3524 74.4876 19.7458 74.4607 18.4544L74.9182 17.9412H75.0898C75.4092 17.9539 75.7261 18.0011 76.0352 18.0821C76.4475 18.1802 76.8505 18.3137 77.2397 18.4813C77.6225 18.6441 77.9877 18.8453 78.3297 19.0816C78.593 19.2395 78.8019 19.4735 78.9286 19.7525C79.6015 22.3418 80.234 25.0285 80.7925 27.8024C81.351 30.5762 81.8321 33.2897 82.2526 35.916C82.3266 35.537 82.5117 34.7521 82.7977 33.5681C83.0836 32.3841 83.4302 31.019 83.8305 29.4526C84.2309 27.8862 84.6683 26.2527 85.1494 24.5388C85.6305 22.8248 86.1015 21.2484 86.5792 19.7994C86.9633 18.5814 87.4228 17.3884 87.9553 16.2273C88.3926 15.2915 88.7661 14.8286 89.0723 14.8286C89.4306 14.8482 89.7858 14.9056 90.132 14.9997C91.073 15.2334 91.9657 15.6296 92.7697 16.1703C93.1196 16.4352 93.308 16.7036 93.308 16.9685Z" fill="#159671"/>
<path d="M103.344 16.2539H103.401C103.415 16.2366 103.432 16.2226 103.452 16.2127C103.472 16.2029 103.493 16.1975 103.516 16.1969C103.485 16.1938 103.453 16.1973 103.424 16.2072C103.394 16.217 103.367 16.2329 103.344 16.2539Z" fill="#159671"/>
<path d="M118.12 41.6214C117.972 41.4565 117.809 41.304 117.636 41.1653C117.479 41.0454 117.316 40.9335 117.148 40.8299C117.03 40.7743 116.931 40.6858 116.862 40.5749C116.481 39.9185 116.21 39.2049 116.058 38.4618C115.866 37.6233 115.722 36.8821 115.6 36.2314C115.373 34.7649 115.229 33.2867 115.17 31.8039C115.113 30.3415 115.069 28.8624 115.055 27.3765C115.042 25.8906 114.998 24.4047 114.941 22.9189C114.884 21.433 114.756 19.9706 114.568 18.5216V18.6356L114.51 18.4076V18.4478L114.224 17.6462L114.396 17.8743C114.088 17.3396 113.644 16.8962 113.107 16.5896C112.792 16.354 112.426 16.1952 112.038 16.1259C111.65 16.0566 111.251 16.0787 110.873 16.1905C110.621 16.2475 110.537 16.3112 110.614 16.3917L110.157 16.9049L109.928 17.4751H109.343C108.898 17.265 108.426 17.1204 107.94 17.0458C107.457 16.9607 106.969 16.9136 106.48 16.9049H106.076L105.961 16.9619C104.177 16.9575 102.442 17.5478 101.033 18.639C99.514 19.7958 98.2248 21.2244 97.2309 22.8518C96.1773 24.5335 95.3578 26.3502 94.795 28.2519C94.257 29.9445 93.9669 31.7057 93.9338 33.481C93.9262 34.56 94.1716 35.6259 94.6504 36.5936C95.1099 37.5462 95.7523 38.3997 96.5412 39.1058C98.175 40.5559 100.285 41.359 102.473 41.3632H102.809C102.997 41.3632 103.098 41.343 103.098 41.3061H102.866C103.203 41.229 103.442 41.172 103.556 41.1351C103.776 41.044 103.987 40.9317 104.185 40.7997L104.128 40.8567C104.622 40.7058 105.117 40.2362 105.618 39.458C106.155 38.6054 106.634 37.7179 107.052 36.8016C107.494 35.8411 107.886 34.8581 108.226 33.8566C108.562 32.8873 108.784 32.136 108.942 31.6027C109.094 32.894 109.279 34.2021 109.545 35.5136C109.765 36.7653 110.192 37.9722 110.806 39.0857C111.386 40.1417 112.222 41.0356 113.239 41.6852C114.271 42.356 115.624 42.6914 117.31 42.6914C117.536 42.6872 117.762 42.658 117.982 42.6042C118.086 42.5924 118.182 42.5421 118.251 42.4632C118.319 42.3843 118.356 42.2826 118.352 42.1782C118.35 41.9697 118.267 41.7702 118.12 41.6214ZM107.435 22.3386C107.183 23.2878 106.89 24.3947 106.547 25.6525C106.204 26.9103 105.813 28.2318 105.4 29.6237C105.006 30.9317 104.547 32.2191 104.024 33.481C103.592 34.5321 103.054 35.5368 102.419 36.4796C101.847 37.3013 101.251 37.7877 100.642 37.9352C100.363 37.1079 100.227 36.2389 100.242 35.366C100.28 34.0362 100.507 32.7184 100.915 31.4517C101.362 29.9167 101.946 28.4249 102.661 26.9941C103.357 25.5798 104.183 24.2324 105.127 22.9692C105.88 21.8979 106.857 21.0019 107.99 20.3429C107.862 20.7186 107.677 21.3894 107.435 22.3386Z" fill="#159671"/>
<path d="M22.6424 32.4644C23.0475 33.5434 23.5241 34.5944 24.0689 35.6105C24.5098 36.454 25.0607 37.2356 25.7074 37.9349C27.1976 39.6492 28.8923 41.1754 30.754 42.4798C34.5342 45.1344 38.7054 47.187 43.1181 48.5641C47.5897 49.9867 52.1926 50.9609 56.8582 51.4721C61.5708 51.9579 66.3094 52.1484 71.0459 52.0423C80.557 51.764 90.0816 50.533 99.5019 48.6882L103.034 47.9973L106.55 47.199C108.905 46.6657 111.24 46.1458 113.565 45.5219L117.054 44.6096C118.221 44.3178 119.382 44.0025 120.539 43.6537L124.011 42.6475L125.747 42.1443L126.615 41.8928L127.049 41.7653L127.265 41.7016C127.359 41.7519 127.339 41.4064 127.632 42.1645L129.943 50.2747C130.088 51.0697 129.919 50.7644 129.865 50.855L129.64 50.9087L129.189 51.0227L128.284 51.2441L126.478 51.6935L122.868 52.5857C121.67 52.8943 120.459 53.1693 119.241 53.4276L115.604 54.2192C113.185 54.776 110.736 55.2254 108.29 55.6749L104.633 56.349L100.932 56.9192C91.0875 58.4152 81.102 59.3711 71.0425 59.1598C65.9944 59.0381 60.959 58.5978 55.9667 57.8416C50.9253 57.047 45.9771 55.748 41.197 53.9643C36.3441 52.1483 31.804 49.591 27.7395 46.3839C25.709 44.7331 23.8575 42.8748 22.2151 40.8396C21.3893 39.8075 20.6351 38.7205 19.9576 37.5861C19.6212 37.0192 19.2848 36.4256 18.9988 35.8252C18.8575 35.5099 18.7094 35.208 18.5749 34.886C18.4403 34.564 18.3192 34.2756 18.1711 33.8161L22.6424 32.4644Z" fill="#159671"/>
</g>
<defs>
<clipPath id="clip0_2_504">
<rect width="130" height="71" fill="white"/>
</clipPath>
</defs>
</svg>
