<svg width="32" height="32" viewBox="0 0 32 32" fill="none" xmlns="http://www.w3.org/2000/svg">
<path d="M3.66675 4.33325L6.44008 4.81325L7.72408 20.1106C7.82675 21.3599 8.87075 22.3186 10.1241 22.3146H24.6694C25.8654 22.3172 26.8801 21.4372 27.0494 20.2532L28.3148 11.5093C28.4561 10.5319 27.7774 9.62525 26.8014 9.48392C26.7161 9.47192 6.88542 9.46525 6.88542 9.46525" stroke="white" stroke-width="2" stroke-linecap="round" stroke-linejoin="round"/>
<path d="M18.8335 14.3931H22.5308" stroke="white" stroke-width="2" stroke-linecap="round" stroke-linejoin="round"/>
<path fill-rule="evenodd" clip-rule="evenodd" d="M9.53905 26.9368C9.94039 26.9368 10.2644 27.2621 10.2644 27.6621C10.2644 28.0634 9.94039 28.3888 9.53905 28.3888C9.13772 28.3888 8.81372 28.0634 8.81372 27.6621C8.81372 27.2621 9.13772 26.9368 9.53905 26.9368Z" fill="white" stroke="white" stroke-width="2" stroke-linecap="round" stroke-linejoin="round"/>
<path fill-rule="evenodd" clip-rule="evenodd" d="M24.5796 26.9368C24.9809 26.9368 25.3062 27.2621 25.3062 27.6621C25.3062 28.0634 24.9809 28.3888 24.5796 28.3888C24.1782 28.3888 23.8542 28.0634 23.8542 27.6621C23.8542 27.2621 24.1782 26.9368 24.5796 26.9368Z" fill="white" stroke="white" stroke-width="2" stroke-linecap="round" stroke-linejoin="round"/>
</svg>
