<svg width="72" height="63" viewBox="0 0 72 63" fill="none" xmlns="http://www.w3.org/2000/svg">
<path fill-rule="evenodd" clip-rule="evenodd" d="M72 9.89999C61.1321 15.3 55.6981 21.6 55.6981 29.25C60.2264 29.7 64.3019 31.95 67.0189 35.1C70.1887 38.25 71.5472 42.3 71.5472 46.8C71.5472 51.3 70.1887 55.35 67.0189 58.5C63.8491 61.65 60.6792 63 56.6038 63C51.6226 63 47.5472 60.75 43.9245 56.7C40.3019 52.65 38.4906 47.7 38.4906 41.4C38.4906 23.85 48 9.89999 67.4717 -0.450012L72 9.89999ZM33.9623 9.89999C23.0943 15.3 17.6604 21.6 17.6604 29.25C22.1887 29.7 26.2642 31.95 29.434 35.1C32.6038 38.25 33.9623 42.3 33.9623 46.8C33.9623 51.3 32.6038 55.35 29.434 58.5C26.2642 61.2 22.6415 63 18.1132 63C13.1321 63 9.0566 60.75 5.43396 56.7C1.81132 52.65 0 47.7 0 41.85C0 24.3 9.50943 10.35 28.9811 -1.21891e-05L33.9623 9.89999Z" fill="#159671"/>
</svg>
