<svg width="77" height="9" viewBox="0 0 77 9" fill="none" xmlns="http://www.w3.org/2000/svg">
<path d="M0.44043 0.395348V8.36975H3.55403C4.80843 8.36975 5.48043 8.14575 6.14123 7.48495C7.00363 6.62255 7.26123 5.43535 7.26123 4.24815C7.26123 2.97135 6.84683 1.89615 6.08523 1.21295C5.32363 0.529747 4.46123 0.395348 3.47563 0.395348H0.44043ZM1.82923 1.58255H3.38603C5.13323 1.58255 5.86123 2.68015 5.86123 4.31535C5.86123 5.95055 5.34603 7.19375 3.47563 7.19375H1.82923V1.58255Z" fill="white"/>
<path d="M11.032 2.42255C9.24004 2.42255 8.08644 3.62095 8.08644 5.48015C8.08644 7.36175 9.22884 8.54895 11.032 8.54895C12.8016 8.54895 13.9216 7.36175 13.9216 5.48015C13.9216 3.60975 12.8016 2.42255 11.032 2.42255ZM11.0096 3.43055C12.0176 3.43055 12.6336 4.20335 12.6336 5.46895C12.6336 6.76815 12.0288 7.55215 11.0208 7.55215C9.99044 7.55215 9.37444 6.77935 9.37444 5.48015C9.37444 4.21455 10.0016 3.43055 11.0096 3.43055Z" fill="white"/>
<path d="M14.4567 2.59055L16.2487 8.36975H17.5927L18.6679 4.08015L19.7543 8.36975H21.0647L22.8903 2.59055H21.5911L20.3927 6.92495L19.3287 2.59055H18.0407L16.9543 6.92495L15.8119 2.59055H14.4567Z" fill="white"/>
<path d="M24.9323 2.59055H23.7227V8.36975H24.9995V5.25615C24.9995 3.92335 25.6379 3.49775 26.4107 3.49775C27.4299 3.49775 27.5307 4.21455 27.5307 5.00975V8.36975H28.8075V4.51695C28.8075 3.20655 28.1803 2.43375 26.8475 2.43375C25.9851 2.43375 25.4139 2.74735 24.9323 3.44175V2.59055Z" fill="white"/>
<path d="M31.4531 0.395348H30.1875V8.36975H31.4531V0.395348Z" fill="white"/>
<path d="M35.5211 2.42255C33.7291 2.42255 32.5755 3.62095 32.5755 5.48015C32.5755 7.36175 33.7179 8.54895 35.5211 8.54895C37.2907 8.54895 38.4107 7.36175 38.4107 5.48015C38.4107 3.60975 37.2907 2.42255 35.5211 2.42255ZM35.4987 3.43055C36.5067 3.43055 37.1227 4.20335 37.1227 5.46895C37.1227 6.76815 36.5179 7.55215 35.5099 7.55215C34.4795 7.55215 33.8635 6.77935 33.8635 5.48015C33.8635 4.21455 34.4907 3.43055 35.4987 3.43055Z" fill="white"/>
<path d="M39.4274 4.37135H40.637C40.7378 3.62095 41.0962 3.34095 41.925 3.34095C42.7314 3.34095 43.1122 3.62095 43.1122 4.21455C43.1122 4.42735 43.0898 4.56175 43.0338 4.62895C42.9106 4.79695 42.653 4.85295 41.7682 4.96495C40.6146 5.11055 39.181 5.25615 39.181 6.79055C39.181 7.85455 39.9314 8.51535 41.1298 8.51535C41.8914 8.51535 42.6306 8.32495 43.157 7.82095C43.2466 8.32495 43.605 8.51535 44.0978 8.51535C44.3442 8.51535 44.5234 8.49295 44.9266 8.39215V7.49615C44.7698 7.51855 44.725 7.51855 44.6354 7.51855C44.4002 7.51855 44.333 7.42895 44.333 7.09295V4.15855C44.333 2.91535 43.325 2.41135 41.9586 2.41135C40.5474 2.41135 39.573 2.94895 39.4274 4.37135ZM43.101 5.46895V6.15215C43.101 6.49935 43.1122 6.88015 42.8434 7.14895C42.5522 7.44015 42.0594 7.60815 41.533 7.60815C40.8722 7.60815 40.4914 7.29455 40.4914 6.74575C40.4914 5.98415 41.1634 5.87215 41.757 5.78255C42.2162 5.71535 42.6866 5.70415 43.101 5.46895Z" fill="white"/>
<path d="M51.1836 0.395348H49.9292V3.34095C49.526 2.74735 48.91 2.43375 48.0924 2.43375C46.4908 2.43375 45.4716 3.60975 45.4716 5.46895C45.4716 7.33935 46.502 8.52655 48.1372 8.52655C48.9996 8.52655 49.6268 8.20175 49.9852 7.57455V8.36975H51.1836V0.395348ZM48.3276 3.46415C49.358 3.46415 49.9628 4.20335 49.9628 5.46895C49.9628 6.74575 49.3692 7.49615 48.3724 7.49615C47.3756 7.49615 46.7596 6.71215 46.7596 5.44655C46.7596 4.21455 47.3644 3.46415 48.3276 3.46415Z" fill="white"/>
<path d="M56.8917 2.59055H55.6821V8.36975H56.9589V5.25615C56.9589 3.92335 57.5973 3.49775 58.3701 3.49775C59.3893 3.49775 59.4901 4.21455 59.4901 5.00975V8.36975H60.7669V4.51695C60.7669 3.20655 60.1397 2.43375 58.8069 2.43375C57.9445 2.43375 57.3733 2.74735 56.8917 3.44175V2.59055Z" fill="white"/>
<path d="M64.7789 2.42255C62.9869 2.42255 61.8333 3.62095 61.8333 5.48015C61.8333 7.36175 62.9757 8.54895 64.7789 8.54895C66.5485 8.54895 67.6685 7.36175 67.6685 5.48015C67.6685 3.60975 66.5485 2.42255 64.7789 2.42255ZM64.7565 3.43055C65.7645 3.43055 66.3805 4.20335 66.3805 5.46895C66.3805 6.76815 65.7757 7.55215 64.7677 7.55215C63.7373 7.55215 63.1213 6.77935 63.1213 5.48015C63.1213 4.21455 63.7485 3.43055 64.7565 3.43055Z" fill="white"/>
<path d="M68.2036 2.59055L69.9956 8.36975H71.3396L72.4148 4.08015L73.5012 8.36975H74.8116L76.6372 2.59055H75.338L74.1396 6.92495L73.0756 2.59055H71.7876L70.7012 6.92495L69.5588 2.59055H68.2036Z" fill="white"/>
</svg>
