<svg width="12" height="13" viewBox="0 0 12 13" fill="none" xmlns="http://www.w3.org/2000/svg">
<path d="M0.313364 10.9346C-0.0557767 11.3037 -0.0733548 11.9629 0.322153 12.3408C0.700083 12.7363 1.36805 12.7188 1.73719 12.3496L5.99989 8.08691L10.2626 12.3496C10.6405 12.7275 11.2909 12.7363 11.6688 12.3408C12.0643 11.9629 12.0556 11.3037 11.6776 10.9258L7.41493 6.66309L11.6776 2.40918C12.0556 2.02246 12.0643 1.37207 11.6688 0.994141C11.2909 0.598633 10.6405 0.607422 10.2626 0.985352L5.99989 5.24805L1.73719 0.985352C1.36805 0.616211 0.700083 0.598633 0.322153 0.994141C-0.0733548 1.37207 -0.0557767 2.03125 0.313364 2.40039L4.57606 6.66309L0.313364 10.9346Z" fill="#1C1C1E"/>
</svg>
