<svg width="168" height="56" viewBox="0 0 168 56" fill="none" xmlns="http://www.w3.org/2000/svg">
<rect opacity="0.2" width="168" height="56" rx="8" fill="white"/>
<path d="M64.8983 33.8463H70.7701C70.8035 33.9843 70.8314 34.151 70.8537 34.3465C70.876 34.5419 70.8872 34.7374 70.8872 34.9328C70.8872 35.7261 70.7701 36.4735 70.5359 37.1748C70.3017 37.8761 69.9336 38.5027 69.4318 39.0546C68.8965 39.6409 68.2552 40.0951 67.508 40.417C66.7608 40.7389 65.9076 40.8999 64.9485 40.8999C64.0786 40.8999 63.2589 40.7389 62.4893 40.417C61.7198 40.0951 61.0507 39.6467 60.4819 39.0718C59.9131 38.497 59.4614 37.8186 59.1269 37.0368C58.7923 36.2435 58.625 35.3812 58.625 34.4499C58.625 33.5187 58.7923 32.6621 59.1269 31.8803C59.4614 31.087 59.9131 30.4029 60.4819 29.8281C61.0507 29.2532 61.7198 28.8048 62.4893 28.4829C63.2589 28.161 64.0786 28 64.9485 28C65.9187 28 66.7831 28.1725 67.5414 28.5174C68.311 28.8623 68.9689 29.3394 69.5154 29.9488L67.9596 31.5182C67.5693 31.0928 67.1344 30.7708 66.6548 30.5524C66.1752 30.3224 65.6009 30.2075 64.9317 30.2075C64.3853 30.2075 63.8667 30.3109 63.376 30.5179C62.8853 30.7133 62.4559 30.995 62.0879 31.3629C61.7198 31.7309 61.4243 32.1792 61.2012 32.7081C60.9893 33.2255 60.8834 33.8061 60.8834 34.4499C60.8834 35.0938 60.9893 35.6802 61.2012 36.209C61.4243 36.7264 61.7198 37.169 62.0879 37.537C62.467 37.9049 62.902 38.1923 63.3927 38.3992C63.8834 38.5947 64.4076 38.6924 64.9652 38.6924C65.6009 38.6924 66.1362 38.6004 66.5712 38.4165C67.0173 38.221 67.3964 37.9739 67.7087 37.6749C67.9318 37.468 68.1214 37.2093 68.2775 36.8989C68.4448 36.5769 68.573 36.2205 68.6623 35.8296H64.8983V33.8463Z" fill="white"/>
<path d="M76.2853 31.8976C76.921 31.8976 77.501 32.0125 78.0251 32.2425C78.5605 32.4609 79.0177 32.7714 79.3969 33.1738C79.7872 33.5647 80.0883 34.036 80.3002 34.5879C80.5233 35.1398 80.6348 35.7434 80.6348 36.3987C80.6348 37.0541 80.5233 37.6577 80.3002 38.2095C80.0883 38.7614 79.7872 39.2385 79.3969 39.6409C79.0177 40.0319 78.5605 40.3423 78.0251 40.5722C77.501 40.7907 76.921 40.8999 76.2853 40.8999C75.6496 40.8999 75.0641 40.7907 74.5288 40.5722C74.0047 40.3423 73.5474 40.0319 73.1571 39.6409C72.7779 39.2385 72.4768 38.7614 72.2537 38.2095C72.0418 37.6577 71.9359 37.0541 71.9359 36.3987C71.9359 35.7434 72.0418 35.1398 72.2537 34.5879C72.4768 34.036 72.7779 33.5647 73.1571 33.1738C73.5474 32.7714 74.0047 32.4609 74.5288 32.2425C75.0641 32.0125 75.6496 31.8976 76.2853 31.8976ZM76.2853 38.8131C76.5642 38.8131 76.8318 38.7614 77.0883 38.6579C77.356 38.543 77.5902 38.382 77.7909 38.1751C77.9917 37.9681 78.1478 37.7152 78.2593 37.4162C78.382 37.1173 78.4433 36.7781 78.4433 36.3987C78.4433 36.0193 78.382 35.6802 78.2593 35.3812C78.1478 35.0823 77.9917 34.8294 77.7909 34.6224C77.5902 34.4155 77.356 34.2602 77.0883 34.1568C76.8318 34.0418 76.5642 33.9843 76.2853 33.9843C75.9954 33.9843 75.7221 34.0418 75.4656 34.1568C75.2091 34.2602 74.9805 34.4155 74.7798 34.6224C74.579 34.8294 74.4173 35.0823 74.2946 35.3812C74.1831 35.6802 74.1273 36.0193 74.1273 36.3987C74.1273 36.7781 74.1831 37.1173 74.2946 37.4162C74.4173 37.7152 74.579 37.9681 74.7798 38.1751C74.9805 38.382 75.2091 38.543 75.4656 38.6579C75.7221 38.7614 75.9954 38.8131 76.2853 38.8131Z" fill="white"/>
<path d="M85.924 31.8976C86.5597 31.8976 87.1396 32.0125 87.6638 32.2425C88.1991 32.4609 88.6563 32.7714 89.0355 33.1738C89.4259 33.5647 89.727 34.036 89.9389 34.5879C90.1619 35.1398 90.2735 35.7434 90.2735 36.3987C90.2735 37.0541 90.1619 37.6577 89.9389 38.2095C89.727 38.7614 89.4259 39.2385 89.0355 39.6409C88.6563 40.0319 88.1991 40.3423 87.6638 40.5722C87.1396 40.7907 86.5597 40.8999 85.924 40.8999C85.2883 40.8999 84.7028 40.7907 84.1675 40.5722C83.6433 40.3423 83.186 40.0319 82.7957 39.6409C82.4165 39.2385 82.1154 38.7614 81.8923 38.2095C81.6805 37.6577 81.5745 37.0541 81.5745 36.3987C81.5745 35.7434 81.6805 35.1398 81.8923 34.5879C82.1154 34.036 82.4165 33.5647 82.7957 33.1738C83.186 32.7714 83.6433 32.4609 84.1675 32.2425C84.7028 32.0125 85.2883 31.8976 85.924 31.8976ZM85.924 38.8131C86.2028 38.8131 86.4705 38.7614 86.727 38.6579C86.9946 38.543 87.2288 38.382 87.4296 38.1751C87.6303 37.9681 87.7864 37.7152 87.898 37.4162C88.0207 37.1173 88.082 36.7781 88.082 36.3987C88.082 36.0193 88.0207 35.6802 87.898 35.3812C87.7864 35.0823 87.6303 34.8294 87.4296 34.6224C87.2288 34.4155 86.9946 34.2602 86.727 34.1568C86.4705 34.0418 86.2028 33.9843 85.924 33.9843C85.634 33.9843 85.3608 34.0418 85.1043 34.1568C84.8478 34.2602 84.6191 34.4155 84.4184 34.6224C84.2176 34.8294 84.0559 35.0823 83.9333 35.3812C83.8217 35.6802 83.766 36.0193 83.766 36.3987C83.766 36.7781 83.8217 37.1173 83.9333 37.4162C84.0559 37.7152 84.2176 37.9681 84.4184 38.1751C84.6191 38.382 84.8478 38.543 85.1043 38.6579C85.3608 38.7614 85.634 38.8131 85.924 38.8131Z" fill="white"/>
<path d="M95.4622 44.625C94.8823 44.625 94.3637 44.5445 93.9065 44.3836C93.4604 44.2341 93.07 44.0329 92.7355 43.78C92.4009 43.5385 92.1221 43.2683 91.899 42.9694C91.676 42.6705 91.5143 42.3715 91.4139 42.0726L93.505 41.2103C93.6611 41.6587 93.9176 42.0036 94.2745 42.2451C94.6314 42.498 95.0273 42.6245 95.4622 42.6245C96.1537 42.6245 96.7002 42.4003 97.1017 41.9519C97.5032 41.515 97.7039 40.8999 97.7039 40.1066V39.5202H97.5701C97.3136 39.8881 96.9734 40.1813 96.5496 40.3998C96.137 40.6067 95.6463 40.7102 95.0775 40.7102C94.5868 40.7102 94.1072 40.6067 93.6388 40.3998C93.1816 40.1928 92.7745 39.8996 92.4176 39.5202C92.0607 39.1293 91.7708 38.6637 91.5477 38.1233C91.3247 37.5829 91.2131 36.9793 91.2131 36.3125C91.2131 35.6457 91.3247 35.0421 91.5477 34.5017C91.7708 33.9498 92.0607 33.4842 92.4176 33.1048C92.7745 32.7139 93.1816 32.4149 93.6388 32.208C94.1072 32.001 94.5868 31.8976 95.0775 31.8976C95.6463 31.8976 96.137 32.0068 96.5496 32.2252C96.9734 32.4322 97.3136 32.7196 97.5701 33.0875H97.7039V32.1735H99.795V40.0204C99.795 40.7332 99.689 41.3713 99.4771 41.9346C99.2652 42.5095 98.9697 42.9924 98.5905 43.3833C98.2113 43.7857 97.7541 44.0904 97.2188 44.2973C96.6946 44.5158 96.1091 44.625 95.4622 44.625ZM95.5459 38.6752C95.8135 38.6752 96.0756 38.6234 96.3321 38.52C96.5998 38.4165 96.834 38.267 97.0347 38.0716C97.2355 37.8646 97.3972 37.6174 97.5199 37.33C97.6426 37.0311 97.7039 36.6919 97.7039 36.3125C97.7039 35.9331 97.6426 35.5939 97.5199 35.295C97.3972 34.9961 97.2355 34.7489 97.0347 34.5534C96.834 34.3465 96.5998 34.1913 96.3321 34.0878C96.0756 33.9843 95.8135 33.9326 95.5459 33.9326C95.2782 33.9326 95.0161 33.9843 94.7596 34.0878C94.5031 34.1913 94.2745 34.3465 94.0738 34.5534C93.873 34.7604 93.7113 35.0133 93.5886 35.3122C93.4659 35.5997 93.4046 35.9331 93.4046 36.3125C93.4046 36.6919 93.4659 37.0311 93.5886 37.33C93.7113 37.6174 93.873 37.8646 94.0738 38.0716C94.2745 38.267 94.5031 38.4165 94.7596 38.52C95.0161 38.6234 95.2782 38.6752 95.5459 38.6752Z" fill="white"/>
<path d="M101.663 40.624V28.2759H103.855V40.624H101.663Z" fill="white"/>
<path d="M113.412 38.589C113.032 39.2788 112.519 39.8364 111.873 40.2618C111.237 40.6872 110.456 40.8999 109.53 40.8999C108.906 40.8999 108.326 40.7907 107.791 40.5722C107.267 40.3423 106.809 40.0261 106.419 39.6237C106.029 39.2213 105.722 38.7499 105.499 38.2095C105.287 37.6577 105.181 37.0541 105.181 36.3987C105.181 35.7894 105.287 35.2145 105.499 34.6741C105.711 34.1223 106.006 33.6451 106.385 33.2427C106.765 32.8288 107.211 32.5012 107.724 32.2597C108.248 32.0183 108.822 31.8976 109.447 31.8976C110.105 31.8976 110.69 32.0125 111.203 32.2425C111.716 32.4609 112.146 32.7714 112.491 33.1738C112.837 33.5647 113.099 34.0303 113.278 34.5707C113.456 35.111 113.545 35.6974 113.545 36.3297C113.545 36.4102 113.545 36.4792 113.545 36.5367C113.534 36.6057 113.529 36.6689 113.529 36.7264C113.518 36.7839 113.512 36.8471 113.512 36.9161H107.339C107.384 37.261 107.473 37.56 107.607 37.8129C107.752 38.0543 107.925 38.2613 108.125 38.4337C108.337 38.5947 108.566 38.7154 108.811 38.7959C109.056 38.8649 109.307 38.8994 109.564 38.8994C110.066 38.8994 110.478 38.7844 110.802 38.5545C111.136 38.313 111.399 38.0141 111.588 37.6577L113.412 38.589ZM111.421 35.3122C111.41 35.1628 111.359 34.9961 111.27 34.8121C111.192 34.6282 111.07 34.4557 110.902 34.2947C110.746 34.1338 110.545 34.0016 110.3 33.8981C110.066 33.7946 109.781 33.7429 109.447 33.7429C108.978 33.7429 108.566 33.8808 108.209 34.1568C107.852 34.4327 107.601 34.8179 107.456 35.3122H111.421Z" fill="white"/>
<path d="M118.888 40.624V28.2759H123.104C123.673 28.2759 124.203 28.3737 124.693 28.5691C125.195 28.7531 125.63 29.0175 125.998 29.3624C126.366 29.7073 126.656 30.1212 126.868 30.6041C127.08 31.0755 127.186 31.5986 127.186 32.1735C127.186 32.7599 127.08 33.2945 126.868 33.7774C126.656 34.2487 126.366 34.6569 125.998 35.0018C125.63 35.3467 125.195 35.6169 124.693 35.8124C124.203 35.9963 123.673 36.0883 123.104 36.0883H121.147V40.624H118.888ZM123.137 33.8808C123.729 33.8808 124.175 33.7084 124.476 33.3635C124.777 33.0185 124.927 32.6219 124.927 32.1735C124.927 31.955 124.888 31.7424 124.81 31.5354C124.743 31.3284 124.632 31.1502 124.476 31.0008C124.331 30.8398 124.147 30.7133 123.924 30.6214C123.701 30.5294 123.439 30.4834 123.137 30.4834H121.147V33.8808H123.137Z" fill="white"/>
<path d="M128.602 40.624V28.2759H130.794V40.624H128.602Z" fill="white"/>
<path d="M137.641 39.7272H137.507C137.25 40.0491 136.938 40.325 136.57 40.555C136.213 40.7849 135.75 40.8999 135.182 40.8999C134.758 40.8999 134.356 40.8252 133.977 40.6757C133.609 40.5377 133.286 40.3423 133.007 40.0893C132.728 39.8364 132.511 39.5317 132.354 39.1753C132.198 38.8189 132.12 38.428 132.12 38.0026C132.12 37.5657 132.204 37.1748 132.371 36.8299C132.538 36.4735 132.773 36.1688 133.074 35.9158C133.375 35.6629 133.726 35.4732 134.128 35.3467C134.54 35.2088 134.986 35.1398 135.466 35.1398C136.001 35.1398 136.442 35.1858 136.788 35.2777C137.133 35.3582 137.418 35.4445 137.641 35.5364V35.2777C137.641 34.8294 137.468 34.4614 137.122 34.174C136.776 33.8751 136.347 33.7256 135.834 33.7256C135.076 33.7256 134.434 34.0533 133.91 34.7086L132.321 33.5877C133.191 32.4609 134.379 31.8976 135.884 31.8976C137.156 31.8976 138.126 32.208 138.795 32.8288C139.464 33.4382 139.799 34.3465 139.799 35.5537V40.624H137.641V39.7272ZM137.641 37.192C137.384 37.0656 137.117 36.9678 136.838 36.8989C136.57 36.8184 136.274 36.7781 135.951 36.7781C135.427 36.7781 135.02 36.8989 134.73 37.1403C134.451 37.3702 134.312 37.6577 134.312 38.0026C134.312 38.3475 134.445 38.6234 134.713 38.8304C134.992 39.0373 135.31 39.1408 135.667 39.1408C135.957 39.1408 136.224 39.0891 136.47 38.9856C136.715 38.8706 136.921 38.7269 137.089 38.5545C137.267 38.3705 137.401 38.1636 137.49 37.9336C137.59 37.6922 137.641 37.445 137.641 37.192Z" fill="white"/>
<path d="M143.954 40.2101L140.508 32.1735H143L145.075 37.2955H145.192L147.183 32.1735H149.625L144.489 44.3491H142.131L143.954 40.2101Z" fill="white"/>
<path d="M59.0117 13.4688V20.4464H61.7361C62.8337 20.4464 63.4217 20.2503 63.9999 19.6722C64.7545 18.9176 64.9799 17.8787 64.9799 16.84C64.9799 15.7228 64.6173 14.782 63.9509 14.1841C63.2845 13.5863 62.5299 13.4688 61.6675 13.4688H59.0117ZM60.2269 14.5076H61.5891C63.1179 14.5076 63.7549 15.468 63.7549 16.8988C63.7549 18.3296 63.3041 19.4174 61.6675 19.4174H60.2269V14.5076Z" fill="white"/>
<path d="M68.2794 15.2425C66.7114 15.2425 65.702 16.2912 65.702 17.918C65.702 19.5644 66.7016 20.6031 68.2794 20.6031C69.8278 20.6031 70.8078 19.5644 70.8078 17.918C70.8078 16.2814 69.8278 15.2425 68.2794 15.2425ZM68.2598 16.1246C69.1418 16.1246 69.6808 16.8008 69.6808 17.9082C69.6808 19.045 69.1516 19.7309 68.2696 19.7309C67.368 19.7309 66.829 19.0548 66.829 17.918C66.829 16.8105 67.3778 16.1246 68.2598 16.1246Z" fill="white"/>
<path d="M71.276 15.3895L72.844 20.4464H74.02L74.9608 16.693L75.9114 20.4464H77.058L78.6554 15.3895H77.5186L76.47 19.1821L75.539 15.3895H74.412L73.4614 19.1821L72.4618 15.3895H71.276Z" fill="white"/>
<path d="M80.4421 15.3895H79.3837V20.4464H80.5009V17.722C80.5009 16.5558 81.0595 16.1834 81.7357 16.1834C82.6275 16.1834 82.7157 16.8105 82.7157 17.5064V20.4464H83.8329V17.0752C83.8329 15.9286 83.2841 15.2523 82.1179 15.2523C81.3633 15.2523 80.8635 15.5267 80.4421 16.1344V15.3895Z" fill="white"/>
<path d="M86.1478 13.4688H85.0404V20.4464H86.1478V13.4688Z" fill="white"/>
<path d="M89.7073 15.2425C88.1393 15.2425 87.1299 16.2912 87.1299 17.918C87.1299 19.5644 88.1295 20.6031 89.7073 20.6031C91.2557 20.6031 92.2357 19.5644 92.2357 17.918C92.2357 16.2814 91.2557 15.2425 89.7073 15.2425ZM89.6877 16.1246C90.5697 16.1246 91.1087 16.8008 91.1087 17.9082C91.1087 19.045 90.5795 19.7309 89.6975 19.7309C88.7959 19.7309 88.2569 19.0548 88.2569 17.918C88.2569 16.8105 88.8057 16.1246 89.6877 16.1246Z" fill="white"/>
<path d="M93.1253 16.9478H94.1837C94.2719 16.2912 94.5855 16.0461 95.3107 16.0461C96.0163 16.0461 96.3495 16.2912 96.3495 16.8106C96.3495 16.9968 96.3299 17.1144 96.2809 17.1732C96.1731 17.3202 95.9477 17.3692 95.1735 17.4672C94.1641 17.5946 92.9097 17.7219 92.9097 19.0645C92.9097 19.9956 93.5663 20.5738 94.6149 20.5738C95.2813 20.5738 95.9281 20.4071 96.3887 19.9661C96.4671 20.4071 96.7807 20.5738 97.2119 20.5738C97.4275 20.5738 97.5843 20.5542 97.9371 20.466V19.682C97.7999 19.7016 97.7607 19.7016 97.6823 19.7016C97.4765 19.7016 97.4177 19.6231 97.4177 19.3291V16.7616C97.4177 15.6737 96.5357 15.2328 95.3401 15.2328C94.1053 15.2328 93.2527 15.7032 93.1253 16.9478ZM96.3397 17.9082V18.5059C96.3397 18.8098 96.3495 19.143 96.1143 19.3782C95.8595 19.633 95.4283 19.78 94.9677 19.78C94.3895 19.78 94.0563 19.5056 94.0563 19.0254C94.0563 18.359 94.6443 18.261 95.1637 18.1825C95.5655 18.1238 95.9771 18.114 96.3397 17.9082Z" fill="white"/>
<path d="M103.412 13.4688H102.314V16.0461C101.962 15.5268 101.423 15.2523 100.707 15.2523C99.3058 15.2523 98.414 16.2814 98.414 17.9082C98.414 19.5448 99.3156 20.5835 100.746 20.5835C101.501 20.5835 102.05 20.2994 102.363 19.7506V20.4464H103.412V13.4688ZM100.913 16.154C101.815 16.154 102.344 16.8008 102.344 17.9082C102.344 19.0254 101.824 19.682 100.952 19.682C100.08 19.682 99.541 18.996 99.541 17.8886C99.541 16.8105 100.07 16.154 100.913 16.154Z" fill="white"/>
<path d="M108.407 15.3895H107.348V20.4464H108.465V17.722C108.465 16.5558 109.024 16.1834 109.7 16.1834C110.592 16.1834 110.68 16.8105 110.68 17.5064V20.4464H111.797V17.0752C111.797 15.9286 111.249 15.2523 110.082 15.2523C109.328 15.2523 108.828 15.5267 108.407 16.1344V15.3895Z" fill="white"/>
<path d="M115.308 15.2425C113.74 15.2425 112.73 16.2912 112.73 17.918C112.73 19.5644 113.73 20.6031 115.308 20.6031C116.856 20.6031 117.836 19.5644 117.836 17.918C117.836 16.2814 116.856 15.2425 115.308 15.2425ZM115.288 16.1246C116.17 16.1246 116.709 16.8008 116.709 17.9082C116.709 19.045 116.18 19.7309 115.298 19.7309C114.396 19.7309 113.857 19.0548 113.857 17.918C113.857 16.8105 114.406 16.1246 115.288 16.1246Z" fill="white"/>
<path d="M118.304 15.3895L119.872 20.4464H121.048L121.989 16.693L122.94 20.4464H124.086L125.684 15.3895H124.547L123.498 19.1821L122.567 15.3895H121.44L120.49 19.1821L119.49 15.3895H118.304Z" fill="white"/>
<path d="M25.8382 13.4986C24.7018 12.8509 23.3675 12.8658 22.2383 13.5079L35.4726 26.0971L39.9186 21.5126L25.8382 13.4986Z" fill="white"/>
<path d="M20.9146 14.793C20.5914 15.3377 20.4062 15.9611 20.4062 16.6219V39.3591C20.4062 39.9993 20.5751 40.6096 20.8801 41.1431L34.1888 27.4195L20.9146 14.793Z" fill="white"/>
<path d="M45.8148 24.87L41.574 22.457L36.8086 27.3691L42.6488 32.9233L45.8167 31.1206C46.9567 30.4691 47.6393 29.301 47.6393 27.9944C47.6375 26.6877 46.9567 25.5196 45.8148 24.87Z" fill="white"/>
<path d="M35.5248 28.6914L22.1797 42.4524C22.7588 42.7931 23.3942 42.9728 24.0332 42.9728C24.6505 42.9728 25.2713 42.8118 25.8396 42.488L40.9746 33.8749L35.5248 28.6914Z" fill="white"/>
</svg>
