<svg width="17" height="15" viewBox="0 0 17 15" fill="none" xmlns="http://www.w3.org/2000/svg">
<path d="M1.14546 6.44809C6.37675 4.00883 13.146 1.03492 14.0807 0.623216C16.5317 -0.454026 17.2839 -0.247779 16.9089 2.13833C16.6395 3.85335 15.8627 9.53069 15.243 13.0646C14.8755 15.1604 14.0508 15.4087 12.7546 14.502C12.1312 14.0657 8.98416 11.8597 8.30087 11.3417C7.67746 10.8697 6.81755 10.3017 7.89599 9.18324C8.27992 8.78503 10.7953 6.23868 12.7553 4.25712C13.012 3.99693 12.6895 3.56937 12.3931 3.778C9.75127 5.63501 6.08861 8.2123 5.62236 8.54784C4.91812 9.05474 4.24157 9.28716 3.02767 8.9175C2.11014 8.63828 1.21431 8.30511 0.865557 8.17819C-0.477815 7.68954 -0.158997 7.05652 1.14546 6.44809Z" fill="#ABABAB"/>
</svg>
