<svg width="19" height="11" viewBox="0 0 19 11" fill="none" xmlns="http://www.w3.org/2000/svg">
<path d="M0.799805 1.61719H17.3584C17.8066 1.61719 18.167 1.24805 18.167 0.808594C18.167 0.351562 17.8066 0 17.3584 0H0.799805C0.351562 0 0 0.360352 0 0.808594C0 1.24805 0.351562 1.61719 0.799805 1.61719ZM0.799805 6.22266H17.3584C17.8066 6.22266 18.167 5.85352 18.167 5.41406C18.167 4.95703 17.8066 4.60547 17.3584 4.60547H0.799805C0.351562 4.60547 0 4.96582 0 5.41406C0 5.85352 0.351562 6.22266 0.799805 6.22266ZM0.799805 10.8281H17.3584C17.8066 10.8281 18.167 10.459 18.167 10.0195C18.167 9.57129 17.8066 9.21094 17.3584 9.21094H0.799805C0.351562 9.21094 0 9.57129 0 10.0195C0 10.459 0.351562 10.8281 0.799805 10.8281Z" fill="#121212"/>
</svg>
