<svg width="18" height="20" viewBox="0 0 18 20" fill="none" xmlns="http://www.w3.org/2000/svg">
<path d="M16.5899 4.69C15.5931 4.47079 14.6913 3.94144 14.014 3.17789C13.3367 2.41435 12.9186 1.45587 12.8199 0.44V0H9.3699V13.67C9.3706 14.2766 9.18044 14.868 8.82634 15.3604C8.47225 15.8529 7.97218 16.2215 7.39696 16.414C6.82175 16.6065 6.20056 16.6131 5.62138 16.4329C5.0422 16.2527 4.5344 15.8948 4.1699 15.41C3.84335 14.9808 3.64339 14.4689 3.59263 13.932C3.54187 13.3951 3.64234 12.8548 3.88268 12.372C4.12302 11.8892 4.49363 11.4834 4.95261 11.2003C5.4116 10.9172 5.94063 10.7681 6.4799 10.77C6.77814 10.7683 7.07489 10.8121 7.3599 10.9V7.4C7.02824 7.35893 6.69401 7.34222 6.3599 7.35C5.12921 7.38288 3.93482 7.77393 2.92299 8.47527C1.91115 9.1766 1.12579 10.1578 0.663077 11.2986C0.200363 12.4395 0.0803793 13.6905 0.317818 14.8986C0.555256 16.1066 1.13981 17.2191 1.9999 18.1C2.88139 18.9962 4.00939 19.6101 5.24059 19.8638C6.4718 20.1175 7.75061 19.9994 8.91456 19.5246C10.0785 19.0498 11.075 18.2397 11.7775 17.1973C12.48 16.1548 12.8568 14.9271 12.8599 13.67V6.67C14.2514 7.66395 15.9199 8.19565 17.6299 8.19V4.79C17.294 4.79139 16.9589 4.75787 16.6299 4.69H16.5899Z" fill="#ABABAB"/>
</svg>
