<svg width="22" height="16" viewBox="0 0 22 16" fill="none" xmlns="http://www.w3.org/2000/svg">
<path fill-rule="evenodd" clip-rule="evenodd" d="M19.6079 0.571016C20.5502 0.824719 21.2932 1.56771 21.5469 2.51003C22.018 4.23159 21.9999 7.81967 21.9999 7.81967C21.9999 7.81967 21.9999 11.3896 21.5469 13.1112C21.2932 14.0535 20.5502 14.7965 19.6079 15.0502C17.8863 15.5033 11.0001 15.5033 11.0001 15.5033C11.0001 15.5033 4.13198 15.5033 2.3923 15.0321C1.44998 14.7784 0.706988 14.0354 0.453285 13.0931C0.000244141 11.3896 0.000244141 7.80155 0.000244141 7.80155C0.000244141 7.80155 0.000244141 4.23159 0.453285 2.51003C0.706988 1.56771 1.4681 0.806598 2.3923 0.552895C4.11386 0.0998535 11.0001 0.0998535 11.0001 0.0998535C11.0001 0.0998535 17.8863 0.0998535 19.6079 0.571016ZM14.5342 7.67554L8.80777 10.9737V4.3774L14.5342 7.67554Z" fill="#ABABAB"/>
</svg>
