<svg width="22" height="16" viewBox="0 0 22 16" fill="none" xmlns="http://www.w3.org/2000/svg">
<path fill-rule="evenodd" clip-rule="evenodd" d="M19.6079 0.570894C20.5502 0.824597 21.2932 1.56758 21.5469 2.50991C22.018 4.23147 21.9999 7.81955 21.9999 7.81955C21.9999 7.81955 21.9999 11.3895 21.5469 13.1111C21.2932 14.0534 20.5502 14.7964 19.6079 15.0501C17.8863 15.5031 11.0001 15.5031 11.0001 15.5031C11.0001 15.5031 4.13198 15.5031 2.3923 15.032C1.44998 14.7783 0.706988 14.0353 0.453285 13.0929C0.000244141 11.3895 0.000244141 7.80143 0.000244141 7.80143C0.000244141 7.80143 0.000244141 4.23147 0.453285 2.50991C0.706988 1.56758 1.4681 0.806476 2.3923 0.552773C4.11386 0.0997314 11.0001 0.0997314 11.0001 0.0997314C11.0001 0.0997314 17.8863 0.0997314 19.6079 0.570894ZM14.5342 7.67541L8.80777 10.9736V4.37727L14.5342 7.67541Z" fill="white"/>
</svg>
